<?xml version="1.0" encoding="UTF-8" standalone="no"?>
<svg
   xmlns:dc="http://purl.org/dc/elements/1.1/"
   xmlns:cc="http://creativecommons.org/ns#"
   xmlns:rdf="http://www.w3.org/1999/02/22-rdf-syntax-ns#"
   xmlns:svg="http://www.w3.org/2000/svg"
   xmlns="http://www.w3.org/2000/svg"
   id="svg8"
   version="1.1"
   viewBox="0 0 67.733332 67.733335"
   height="256"
   width="256">
  <defs
     id="defs2" />
  <metadata
     id="metadata5">
    <rdf:RDF>
      <cc:Work
         rdf:about="">
        <dc:format>image/svg+xml</dc:format>
        <dc:type
           rdf:resource="http://purl.org/dc/dcmitype/StillImage" />
        <dc:title></dc:title>
      </cc:Work>
    </rdf:RDF>
  </metadata>
  <g
     transform="translate(0,-229.26665)"
     id="layer1">
    <g
       transform="translate(0.36477225,-0.16361293)"
       id="g4574">
      <g
         id="g4555"
         style="fill:#757575;fill-opacity:1">
        <path
           id="rect4520"
           d="m 39.140495,257.87891 h 3.541146 v -1.01758 h -3.541146 z m 5.576302,0 h 4.068359 v -1.01758 h -4.068359 z m 6.103515,0 h 4.06836 v -1.01758 h -4.06836 z m 6.078126,0.0176 0.115234,0.006 0.43164,0.0664 0.855469,0.26563 0.757813,0.4082 0.666015,0.54883 0.300782,0.36523 0.785156,-0.64648 -0.332031,-0.40235 -0.07031,-0.0703 -0.738281,-0.60938 -0.08203,-0.0547 -0.84961,-0.45899 -0.0918,-0.0391 -0.939453,-0.29101 -0.07422,-0.0156 -0.498046,-0.0762 -0.05078,-0.006 -0.134765,-0.006 z m 3.957031,3.27735 0.0918,0.29492 0.06836,0.45117 0.02148,0.44922 v 2.70313 h 1.017579 v -2.70313 -0.0254 l -0.02539,-0.51172 -0.0059,-0.0508 -0.07617,-0.49805 -0.01563,-0.0742 -0.103516,-0.33398 z m 0.18164,10.00192 h 1.017579 v -4.07031 H 61.037109 Z M 27,272.19727 h 1.017578 v -3.01003 H 27 Z m 34.037109,5.08203 h 1.017579 v -4.06836 H 61.037109 Z M 27,278.30273 h 1.017578 v -4.07031 H 27 Z m 34.037109,5.08008 h 1.017579 v -4.06836 H 61.037109 Z M 27,284.40625 h 1.017578 v -4.07031 H 27 Z m 34.037109,2.00195 -0.02148,0.44922 -0.06836,0.44922 -0.265625,0.85547 -0.408203,0.75781 -0.04297,0.0508 0.785156,0.64844 0.07227,-0.0879 0.05469,-0.082 0.458984,-0.84961 0.03906,-0.0918 0.291016,-0.93945 0.01563,-0.0742 0.07617,-0.49805 0.0059,-0.0508 0.02539,-0.51172 v -0.0254 -0.99023 h -1.017579 z m -34.035156,0.0586 0.02344,0.47851 0.0059,0.0508 0.07617,0.49805 0.01563,0.0742 0.291015,0.93945 0.03906,0.0918 0.458984,0.84961 0.05469,0.082 0.609375,0.73828 0.07031,0.0703 0.136719,0.11133 0.646485,-0.7832 -0.09961,-0.082 -0.548828,-0.66602 -0.408203,-0.75781 -0.265625,-0.85547 -0.06836,-0.44922 -0.02148,-0.44336 z m 31.298828,4.07617 -0.865234,0.26758 -0.439453,0.0664 -0.449219,0.0215 h -1.335937 v 1.01758 h 1.335937 0.02539 l 0.511718,-0.0254 0.05078,-0.006 0.498046,-0.0762 0.07422,-0.0156 0.939453,-0.29102 0.0918,-0.0391 0.646485,-0.34961 -0.484375,-0.89453 z m -27.617187,1.04492 0.664062,0.20508 0.07422,0.0156 0.498047,0.0762 0.05078,0.006 0.511719,0.0254 h 0.02539 2.357422 v -1.01758 h -2.357422 l -0.449218,-0.0215 -0.439453,-0.0664 -0.634766,-0.19532 z m 6.216797,0.32813 h 4.068359 v -1.01758 h -4.068359 z m 6.103515,0 h 4.070313 v -1.01758 h -4.070313 z m 6.103516,0 h 4.070312 v -1.01758 h -4.070312 z"
           style="color:#000000;font-style:normal;font-variant:normal;font-weight:normal;font-stretch:normal;font-size:medium;line-height:normal;font-family:sans-serif;font-variant-ligatures:normal;font-variant-position:normal;font-variant-caps:normal;font-variant-numeric:normal;font-variant-alternates:normal;font-feature-settings:normal;text-indent:0;text-align:start;text-decoration:none;text-decoration-line:none;text-decoration-style:solid;text-decoration-color:#000000;letter-spacing:normal;word-spacing:normal;text-transform:none;writing-mode:lr-tb;direction:ltr;text-orientation:mixed;dominant-baseline:auto;baseline-shift:baseline;text-anchor:start;white-space:normal;shape-padding:0;clip-rule:nonzero;display:inline;overflow:visible;visibility:visible;opacity:1;isolation:auto;mix-blend-mode:normal;color-interpolation:sRGB;color-interpolation-filters:linearRGB;solid-color:#000000;solid-opacity:1;vector-effect:none;fill:#757575;fill-opacity:1;fill-rule:nonzero;stroke:none;stroke-width:1.0173229;stroke-linecap:butt;stroke-linejoin:round;stroke-miterlimit:4;stroke-dasharray:4.0692917, 2.03464585;stroke-dashoffset:0;stroke-opacity:1;color-rendering:auto;image-rendering:auto;shape-rendering:auto;text-rendering:auto;enable-background:accumulate" />
        <path
           id="rect3713"
           transform="matrix(0.26458333,0,0,0.26458333,0,229.26665)"
           d="m 39.529297,20.451172 c -11.50102,0 -20.824219,9.315379 -20.824219,20.816406 V 132.125 c 0,11.50103 9.323199,20.81641 20.824219,20.81641 l 66.373063,0.001 v -3.83789 l -66.373063,-0.001 C 30.091737,149.10338 22.550781,141.56256 22.550781,132.125 V 41.267578 c 0,-9.437556 7.540956,-16.970703 16.978516,-16.970703 h 90.849613 c 9.43756,0 16.97851,7.533147 16.97851,16.970703 v 66.877302 h 3.8457 V 41.267578 c 0,-11.501027 -9.32319,-20.816406 -20.82421,-20.816406 z"
           style="color:#000000;font-style:normal;font-variant:normal;font-weight:normal;font-stretch:normal;font-size:medium;line-height:normal;font-family:sans-serif;font-variant-ligatures:normal;font-variant-position:normal;font-variant-caps:normal;font-variant-numeric:normal;font-variant-alternates:normal;font-feature-settings:normal;text-indent:0;text-align:start;text-decoration:none;text-decoration-line:none;text-decoration-style:solid;text-decoration-color:#000000;letter-spacing:normal;word-spacing:normal;text-transform:none;writing-mode:lr-tb;direction:ltr;text-orientation:mixed;dominant-baseline:auto;baseline-shift:baseline;text-anchor:start;white-space:normal;shape-padding:0;clip-rule:nonzero;display:inline;overflow:visible;visibility:visible;opacity:1;isolation:auto;mix-blend-mode:normal;color-interpolation:sRGB;color-interpolation-filters:linearRGB;solid-color:#000000;solid-opacity:1;vector-effect:none;fill:#757575;fill-opacity:1;fill-rule:nonzero;stroke:none;stroke-width:3.84469724;stroke-linecap:butt;stroke-linejoin:round;stroke-miterlimit:4;stroke-dasharray:none;stroke-dashoffset:0;stroke-opacity:1;color-rendering:auto;image-rendering:auto;shape-rendering:auto;text-rendering:auto;enable-background:accumulate" />
      </g>
      <g
         id="g4566"
         style="fill:none;fill-opacity:1;stroke:#757575;stroke-opacity:1"
         transform="translate(0.56126601,-1.683798)">
        <path
           id="path4559"
           d="m 22.962053,255.13912 19.890998,19.891 v -7.32329"
           style="fill:none;fill-opacity:1;stroke:#757575;stroke-width:1.32291663;stroke-linecap:butt;stroke-linejoin:round;stroke-miterlimit:4;stroke-dasharray:none;stroke-opacity:1" />
        <path
           id="path4561"
           d="M 42.887157,274.96674 H 35.574083"
           style="fill:none;fill-opacity:1;stroke:#757575;stroke-width:1.43800211;stroke-linecap:butt;stroke-linejoin:miter;stroke-miterlimit:4;stroke-dasharray:none;stroke-opacity:1" />
      </g>
    </g>
  </g>
</svg>
